<svg width="1440.000000" height="220.500000" viewBox="0 0 1440 220.5" fill="none" xmlns="http://www.w3.org/2000/svg" xmlns:xlink="http://www.w3.org/1999/xlink">
	<desc>
			Created with Pixso.
	</desc>
	<defs/>
	<mask id="mask1_16796" mask-type="alpha" maskUnits="userSpaceOnUse" x="0.000000" y="0.000000" width="1440.000000" height="220.500000">
		<rect id="BG" width="1440.000000" height="220.500000" fill="#201F1F" fill-opacity="1.000000"/>
	</mask>
	<g mask="url(#mask1_16796)">
		<g opacity="0.200000">
			<path id="Vector 6" d="M1562.55 -80.8447C1539.07 -78.6523 1513.57 -78.3086 1490.69 -73.1826C1468.3 -68.167 1444.73 -59.0674 1425.03 -49.4561C1388.74 -31.7451 1370.15 -6.95117 1353.28 22.6299C1325.45 71.4463 1315.37 122.078 1314.94 175.123C1314.65 210.238 1316 244.997 1319.67 279.998C1320.78 290.684 1320.22 302.9 1328.07 312.128" stroke="#A596FF" stroke-opacity="1.000000" stroke-width="4.448742" stroke-linecap="round"/>
		</g>
	</g>
	<g mask="url(#mask1_16796)">
		<g opacity="0.200000">
			<path id="Vector 8" d="M1610 -55.6357C1585.82 -53.3779 1559.56 -53.0234 1535.99 -47.7432C1512.94 -42.5752 1488.66 -33.2012 1468.37 -23.2998C1430.99 -5.05371 1411.84 20.4883 1394.47 50.9629C1365.8 101.253 1355.43 153.413 1354.98 208.059C1354.68 244.235 1356.07 280.042 1359.85 316.1C1361 327.108 1360.42 339.693 1368.5 349.2" stroke="#A596FF" stroke-opacity="1.000000" stroke-width="4.448742" stroke-linecap="round"/>
		</g>
	</g>
	<g mask="url(#mask1_16796)">
		<g opacity="0.200000">
			<path id="Vector 4" d="M369.68 577.878C375.051 546.413 382.885 516.817 380.878 482.89C379.444 458.657 373.443 434.81 361.905 412.054C340.393 369.626 312.271 329.18 278.84 296.952C244.679 264.021 211.143 228.188 172.566 202.899C136.7 179.388 98.4463 159.962 63.4785 134.41C4.88965 91.5977 -36.5781 23.2803 -71.7744 -42.2881C-90.3945 -76.9766 -108.862 -111.9 -126.688 -147.001C-137.875 -169.027 -147.272 -192.646 -161.027 -213.115" stroke="#A596FF" stroke-opacity="1.000000" stroke-width="4.016670" stroke-linecap="round"/>
		</g>
	</g>
	<g mask="url(#mask1_16796)">
		<g opacity="0.200000">
			<path id="Vector 7" d="M413.34 566.6C419.134 532.606 427.59 500.633 425.415 463.978C423.861 437.797 417.374 412.03 404.907 387.442C381.662 341.6 351.279 297.896 315.163 263.07C278.258 227.483 242.026 188.764 200.354 161.434C161.61 136.023 120.288 115.028 82.5137 87.415C19.2217 41.1484 -25.582 -32.6709 -63.6123 -103.518C-83.7314 -140.999 -103.687 -178.735 -122.948 -216.66C-135.035 -240.46 -145.19 -265.98 -160.052 -288.097" stroke="#A596FF" stroke-opacity="1.000000" stroke-width="4.016670" stroke-linecap="round"/>
		</g>
	</g>
</svg>
