<svg width="14.558594" height="19.690430" viewBox="0 0 14.5586 19.6904" fill="none" xmlns="http://www.w3.org/2000/svg">
	<defs/>
	<path id="Book Mark" d="M11.6699 0.365234C8.76855 -0.12207 5.79004 -0.12207 2.88867 0.365234C1.8291 0.542969 0.984375 1.35645 0.772461 2.41113C-0.202148 7.24512 -0.254883 12.2197 0.615234 17.0732L0.969727 19.0498C1.0791 19.6592 1.82227 19.9023 2.27051 19.4766L6.54688 15.4131C6.95703 15.0234 7.60156 15.0234 8.01172 15.4131L12.2881 19.4766C12.7373 19.9023 13.4795 19.6592 13.5889 19.0498L13.9434 17.0732C14.8135 12.2197 14.7607 7.24512 13.7871 2.41113C13.5742 1.35645 12.7295 0.542969 11.6699 0.365234Z" fill="#6C5FBC" fill-opacity="1.000000" fill-rule="nonzero"/>
</svg>
