<svg width="21.336914" height="21.416016" viewBox="0 0 21.3369 21.416" fill="none" xmlns="http://www.w3.org/2000/svg">
	<defs/>
	<mask id="mask_1_15859" fill="white">
		<path id="Path 8" d="M10.6182 0C12.0371 0.0507812 13.5078 0.0507812 14.9268 0.101562C16.1943 0.151855 17.3604 0.35498 18.4756 1.01367C19.8955 1.87549 20.7568 3.14307 21.0615 4.76514C21.2129 5.72852 21.2637 6.74219 21.3145 7.70557C21.3486 9.125 21.3369 10.5444 21.3262 11.9639L21.3262 11.9639C21.3203 12.6738 21.3145 13.3833 21.3145 14.0933C21.3145 15.2085 21.2637 16.3237 20.9092 17.3882C20.1992 19.4668 18.7295 20.7344 16.5996 21.1396C15.6367 21.3428 14.623 21.3428 13.6592 21.3931C12.2422 21.4272 10.8467 21.416 9.44434 21.4048C8.74023 21.3989 8.03418 21.3931 7.32227 21.3931C6.20703 21.3931 5.0918 21.3428 4.02734 20.9878C1.94922 20.2778 0.681641 18.8076 0.276367 16.6787C0.0732422 15.7153 0.0732422 14.7017 0.0224609 13.7383C-0.0117188 12.3188 0 10.8994 0.0117188 9.47998C0.0166016 8.77002 0.0224609 8.06055 0.0224609 7.35059C0.0224609 6.23535 0.0732422 5.12012 0.427734 4.05566C1.1377 1.97705 2.6084 0.709961 4.7373 0.304199C5.7002 0.101562 6.71387 0.101562 7.67773 0.0507812C8.64062 0 9.60352 0 10.6182 0ZM19.3379 7.95898C19.3379 8.8208 19.3379 9.63232 19.3887 10.4941C19.3379 12.167 19.3379 13.7891 19.2363 15.3101C19.1855 16.5264 18.8311 17.5913 17.8164 18.4023C17.208 18.9092 16.499 19.1626 15.7383 19.2134C14.9268 19.3149 14.1162 19.3657 13.3047 19.3657C12.6924 19.3657 12.0859 19.3711 11.4834 19.377C10.2891 19.3882 9.11035 19.3994 7.93066 19.3657C6.96777 19.3657 6.00488 19.3149 5.0918 19.1626C3.26758 18.8584 2.15234 17.5913 2 15.7661C1.89844 14.5493 1.84766 13.2822 1.84766 12.0654C1.84766 10.1392 1.84766 8.2124 1.89844 6.28613C1.94922 5.7793 2 5.27246 2.15234 4.76514C2.6084 3.24463 3.67285 2.38281 5.19336 2.12939C6.05566 1.97705 6.96777 1.92627 7.88086 1.92627C9.70508 1.87598 11.4795 1.87598 13.3047 1.92627C14.2178 1.92627 15.2314 1.92627 16.1436 2.12939C17.918 2.48389 18.9824 3.70068 19.1855 5.52588C19.2871 6.33691 19.3379 7.14795 19.3379 7.95898Z" clip-rule="evenodd" fill="" fill-opacity="1.000000" fill-rule="evenodd"/>
	</mask>
	<path id="Path 8" d="M10.6182 0C12.0371 0.0507812 13.5078 0.0507812 14.9268 0.101562C16.1943 0.151855 17.3604 0.35498 18.4756 1.01367C19.8955 1.87549 20.7568 3.14307 21.0615 4.76514C21.2129 5.72852 21.2637 6.74219 21.3145 7.70557C21.3486 9.125 21.3369 10.5444 21.3262 11.9639L21.3262 11.9639C21.3203 12.6738 21.3145 13.3833 21.3145 14.0933C21.3145 15.2085 21.2637 16.3237 20.9092 17.3882C20.1992 19.4668 18.7295 20.7344 16.5996 21.1396C15.6367 21.3428 14.623 21.3428 13.6592 21.3931C12.2422 21.4272 10.8467 21.416 9.44434 21.4048C8.74023 21.3989 8.03418 21.3931 7.32227 21.3931C6.20703 21.3931 5.0918 21.3428 4.02734 20.9878C1.94922 20.2778 0.681641 18.8076 0.276367 16.6787C0.0732422 15.7153 0.0732422 14.7017 0.0224609 13.7383C-0.0117188 12.3188 0 10.8994 0.0117188 9.47998C0.0166016 8.77002 0.0224609 8.06055 0.0224609 7.35059C0.0224609 6.23535 0.0732422 5.12012 0.427734 4.05566C1.1377 1.97705 2.6084 0.709961 4.7373 0.304199C5.7002 0.101562 6.71387 0.101562 7.67773 0.0507812C8.64062 0 9.60352 0 10.6182 0ZM19.3379 7.95898C19.3379 8.8208 19.3379 9.63232 19.3887 10.4941C19.3379 12.167 19.3379 13.7891 19.2363 15.3101C19.1855 16.5264 18.8311 17.5913 17.8164 18.4023C17.208 18.9092 16.499 19.1626 15.7383 19.2134C14.9268 19.3149 14.1162 19.3657 13.3047 19.3657C12.6924 19.3657 12.0859 19.3711 11.4834 19.377C10.2891 19.3882 9.11035 19.3994 7.93066 19.3657C6.96777 19.3657 6.00488 19.3149 5.0918 19.1626C3.26758 18.8584 2.15234 17.5913 2 15.7661C1.89844 14.5493 1.84766 13.2822 1.84766 12.0654C1.84766 10.1392 1.84766 8.2124 1.89844 6.28613C1.94922 5.7793 2 5.27246 2.15234 4.76514C2.6084 3.24463 3.67285 2.38281 5.19336 2.12939C6.05566 1.97705 6.96777 1.92627 7.88086 1.92627C9.70508 1.87598 11.4795 1.87598 13.3047 1.92627C14.2178 1.92627 15.2314 1.92627 16.1436 2.12939C17.918 2.48389 18.9824 3.70068 19.1855 5.52588C19.2871 6.33691 19.3379 7.14795 19.3379 7.95898Z" clip-rule="evenodd" fill="#081420" fill-opacity="1.000000" fill-rule="evenodd" mask="url(#mask_1_15859)"/>
	<path id="Path 8" d="" fill="#707070" fill-opacity="0.000000" fill-rule="nonzero"/>
	<mask id="mask_1_15862" fill="white">
		<path id="Path 9" d="M10.6172 16.1714C13.6592 16.1714 16.0928 13.7378 16.0928 10.6963C16.0928 7.6543 13.6592 5.22119 10.668 5.22119C7.62695 5.22119 5.14258 7.6543 5.14258 10.6455C5.14258 13.7378 7.57617 16.1714 10.6172 16.1714ZM14.166 10.6963C14.166 12.6226 12.5439 14.2446 10.6172 14.2446C8.64062 14.2446 7.01855 12.6226 7.06934 10.6963C7.06934 8.76953 8.64062 7.14746 10.6172 7.14746C12.5439 7.14746 14.166 8.76953 14.166 10.6963Z" clip-rule="evenodd" fill="" fill-opacity="1.000000" fill-rule="evenodd"/>
	</mask>
	<path id="Path 9" d="M10.6172 16.1714C13.6592 16.1714 16.0928 13.7378 16.0928 10.6963C16.0928 7.6543 13.6592 5.22119 10.668 5.22119C7.62695 5.22119 5.14258 7.6543 5.14258 10.6455C5.14258 13.7378 7.57617 16.1714 10.6172 16.1714ZM14.166 10.6963C14.166 12.6226 12.5439 14.2446 10.6172 14.2446C8.64062 14.2446 7.01855 12.6226 7.06934 10.6963C7.06934 8.76953 8.64062 7.14746 10.6172 7.14746C12.5439 7.14746 14.166 8.76953 14.166 10.6963Z" clip-rule="evenodd" fill="#081420" fill-opacity="1.000000" fill-rule="evenodd" mask="url(#mask_1_15862)"/>
	<path id="Path 9" d="" fill="#707070" fill-opacity="0.000000" fill-rule="nonzero"/>
	<path id="Path 10" d="M17.5645 4.96777C17.5645 5.67725 17.0068 6.28564 16.2969 6.28564C15.5869 6.28564 14.9785 5.67725 15.0293 4.96777C15.0293 4.25781 15.5869 3.7002 16.2969 3.7002C17.0068 3.7002 17.5645 4.25781 17.5645 4.96777Z" fill="#081420" fill-opacity="1.000000" fill-rule="nonzero"/>
	<path id="Path 10" d="M16.2969 6.28564C15.5869 6.28564 14.9785 5.67725 15.0293 4.96777C15.0293 4.25781 15.5869 3.7002 16.2969 3.7002C17.0068 3.7002 17.5645 4.25781 17.5645 4.96777C17.5645 5.67725 17.0068 6.28564 16.2969 6.28564Z" stroke="#707070" stroke-opacity="0" stroke-width="0.000000"/>
</svg>
