<svg width="25.786133" height="25.786621" viewBox="0 0 25.7861 25.7866" fill="none" xmlns="http://www.w3.org/2000/svg">
	<defs/>
	<g opacity="0.000100"/>
	<path id="Edit Color" d="M15.9561 21.1567C17.6602 22.0894 19.1592 20.959 18.833 18.981L18.248 15.4287L20.7266 12.9131C22.1055 11.5142 21.5361 9.68066 19.6279 9.39209L16.2021 8.87402L14.6777 5.6582C13.8242 3.85693 11.9697 3.8374 11.1143 5.64209L9.58301 8.87402L6.15723 9.39209C4.25195 9.68018 3.67773 11.5122 5.05859 12.9131L7.53711 15.4287L6.95215 18.981C6.62598 20.9561 8.12207 22.0908 9.82812 21.1567L12.8926 19.4795L15.9561 21.1567Z" fill="#6C5FBC" fill-opacity="1.000000" fill-rule="nonzero"/>
	<mask id="mask1_16754" maskUnits="userSpaceOnUse" x="4.296875" y="4.297852" width="17.191406" height="17.190918">
		<path id="Edit Color" d="M15.9561 21.1567C17.6602 22.0894 19.1592 20.959 18.833 18.981L18.248 15.4287L20.7266 12.9131C22.1055 11.5142 21.5361 9.68066 19.6279 9.39209L16.2021 8.87402L14.6777 5.6582C13.8242 3.85693 11.9697 3.8374 11.1143 5.64209L9.58301 8.87402L6.15723 9.39209C4.25195 9.68018 3.67773 11.5122 5.05859 12.9131L7.53711 15.4287L6.95215 18.981C6.62598 20.9561 8.12207 22.0908 9.82812 21.1567L12.8926 19.4795L15.9561 21.1567Z" fill="#FF7A28" fill-opacity="1.000000" fill-rule="nonzero"/>
	</mask>
</svg>
