<svg width="23.000000" height="23.000000" viewBox="0 0 23 23" fill="none" xmlns="http://www.w3.org/2000/svg">
	<defs/>
	<path id="Path" d="M11.9512 0.294922L15.2324 7.26953L22.5684 8.38818C22.7588 8.41748 22.916 8.55713 22.9756 8.74805C23.0342 8.93896 22.9854 9.14844 22.8477 9.28857L17.54 14.7163L18.793 22.3818C18.8262 22.5796 18.749 22.7798 18.5938 22.8975C18.4385 23.0156 18.2324 23.0312 18.0625 22.938L11.501 19.3198L4.93848 22.939C4.76855 23.0327 4.5625 23.0176 4.40723 22.8994C4.25195 22.7812 4.1748 22.5811 4.20801 22.3833L5.46094 14.7163L0.152344 9.28857C0.0146484 9.14844 -0.0341797 8.93896 0.0244141 8.74805C0.0839844 8.55713 0.241211 8.41748 0.431641 8.38818L7.76758 7.26953L11.0508 0.294922C11.1338 0.114746 11.3086 0 11.501 0C11.6924 0 11.8672 0.114746 11.9512 0.294922Z" fill="#F59E0B" fill-opacity="1.000000" fill-rule="evenodd"/>
</svg>
