<svg width="61.884766" height="57.000000" viewBox="0 0 61.8848 57" fill="none" xmlns="http://www.w3.org/2000/svg">
	<defs/>
	<rect id="Back" x="4.949219" y="6.706055" rx="9.388170" width="56.935604" height="50.293766" fill="#6C5FBC" fill-opacity="1.000000"/>
	<rect id="Front" x="1.357422" y="1.356934" rx="9.388170" width="54.221336" height="47.579498" fill="#DBD9EE" fill-opacity="1.000000"/>
	<rect id="Front" x="1.357422" y="1.356934" rx="9.388170" width="54.221336" height="47.579498" stroke="#6C5FBC" stroke-opacity="1.000000" stroke-width="2.714267"/>
	<path id="Vector" d="M43.9463 16.2344L13.0967 16.0981" stroke="#6C5FBC" stroke-opacity="1.000000" stroke-width="2.807651" stroke-linejoin="round" stroke-linecap="round"/>
	<path id="Vector" d="M43.9307 22.4102L37.0674 22.377C34.2285 22.3633 31.9316 19.5859 31.9414 16.1777C31.9512 12.77 34.2627 10.0151 37.1016 10.0288L43.9648 10.062" stroke="#6C5FBC" stroke-opacity="1.000000" stroke-width="2.807651" stroke-linejoin="round" stroke-linecap="round"/>
	<path id="Vector" d="M14.4229 35.8926C13.6885 35.8887 13.0723 35.1646 13.0586 34.2827L12.998 31.9575C12.9834 31.0352 13.6035 30.2568 14.3711 30.2603L23.2363 30.3633L23.3877 35.9961L14.4229 35.8926Z" stroke="#6C5FBC" stroke-opacity="1.000000" stroke-width="2.807651" stroke-linejoin="round"/>
	<path id="Vector" d="M24.7959 39.1826C24.0615 39.1787 23.4463 38.4546 23.4316 37.5732L23.2686 30.3403L43.8535 30.6001L43.8672 31.5215C43.9727 35.8896 41.0908 39.4014 37.4678 39.3438L24.7959 39.1826Z" stroke="#6C5FBC" stroke-opacity="1.000000" stroke-width="2.807651" stroke-linejoin="round"/>
</svg>
